<svg width="32" height="32" viewBox="0 0 32 32" fill="none" xmlns="http://www.w3.org/2000/svg">
<path d="M24.5 28C23.0753 28.0309 21.6964 27.4957 20.6655 26.5119C19.6346 25.528 19.0357 24.1756 19 22.751C19.021 21.7445 19.3238 20.764 19.874 19.921L23.49 14.538C23.6013 14.3724 23.7517 14.2367 23.9278 14.1428C24.1039 14.049 24.3004 13.9999 24.5 13.9999C24.6996 13.9999 24.8961 14.049 25.0722 14.1428C25.2483 14.2367 25.3987 14.3724 25.51 14.538L29.06 19.815C29.6472 20.6838 29.9734 21.7026 30 22.751C29.9643 24.1756 29.3654 25.528 28.3345 26.5119C27.3036 27.4957 25.9247 28.0309 24.5 28ZM24.5 16.62L21.564 20.987C21.2144 21.5105 21.019 22.1217 21 22.751C21.0668 23.6335 21.4645 24.4583 22.1135 25.0601C22.7625 25.6618 23.6149 25.9962 24.5 25.9962C25.3851 25.9962 26.2375 25.6618 26.8865 25.0601C27.5355 24.4583 27.9332 23.6335 28 22.751C27.9768 22.0805 27.7578 21.4315 27.37 20.884L24.5 16.62Z" fill="black"/>
<path d="M5 14C5.55228 14 6 13.5523 6 13C6 12.4477 5.55228 12 5 12C4.44772 12 4 12.4477 4 13C4 13.5523 4.44772 14 5 14Z" fill="black"/>
<path d="M11 20C11.5523 20 12 19.5523 12 19C12 18.4477 11.5523 18 11 18C10.4477 18 10 18.4477 10 19C10 19.5523 10.4477 20 11 20Z" fill="black"/>
<path d="M15 26C15.5523 26 16 25.5523 16 25C16 24.4477 15.5523 24 15 24C14.4477 24 14 24.4477 14 25C14 25.5523 14.4477 26 15 26Z" fill="black"/>
<path d="M17 16C17.5523 16 18 15.5523 18 15C18 14.4477 17.5523 14 17 14C16.4477 14 16 14.4477 16 15C16 15.5523 16.4477 16 17 16Z" fill="black"/>
<path d="M13 12C13.5523 12 14 11.5523 14 11C14 10.4477 13.5523 10 13 10C12.4477 10 12 10.4477 12 11C12 11.5523 12.4477 12 13 12Z" fill="black"/>
<path d="M27 12C27.5523 12 28 11.5523 28 11C28 10.4477 27.5523 10 27 10C26.4477 10 26 10.4477 26 11C26 11.5523 26.4477 12 27 12Z" fill="black"/>
<path d="M9 28C9.55228 28 10 27.5523 10 27C10 26.4477 9.55228 26 9 26C8.44772 26 8 26.4477 8 27C8 27.5523 8.44772 28 9 28Z" fill="black"/>
<path d="M3 22C3.55228 22 4 21.5523 4 21C4 20.4477 3.55228 20 3 20C2.44772 20 2 20.4477 2 21C2 21.5523 2.44772 22 3 22Z" fill="black"/>
<path d="M2 6H30V8H2V6Z" fill="black"/>
</svg>
