<svg width="47" height="33" viewBox="0 0 47 33" fill="none" xmlns="http://www.w3.org/2000/svg">
<path d="M4.73953 27.8605C3.42128 29.6145 2.76501 31.302 2.4718 32.2433C2.33807 32.6724 1.89575 32.9281 1.45717 32.8297C0.995846 32.7264 0.708282 32.2706 0.814682 31.8102C1.56656 28.5586 3.08999 22.2742 12.2988 16.3551C23.3963 9.22214 30.8042 16.1508 39.8177 8.29159C39.8177 8.29159 35.0827 11.5469 21.771 10.4541C11.2344 9.58924 4.91073 18.6941 4.78078 18.8347C4.79014 18.6872 5.46974 9.22324 14.4985 4.0105C24.5435 -1.78901 36.2881 8.45514 46.9902 0.24578C46.9902 0.24578 47.1704 17.4789 34.4073 24.8477C25.9827 29.7117 17.8942 26.7442 11.4481 25.3508C8.92332 24.8049 6.29544 25.79 4.73953 27.8605Z" fill="white"/>
</svg>
