<svg width="24" height="24" viewBox="0 0 24 24" fill="none" xmlns="http://www.w3.org/2000/svg">
<path d="M15 22.75H9C3.57 22.75 1.25 20.43 1.25 15V9C1.25 3.57 3.57 1.25 9 1.25H15C20.43 1.25 22.75 3.57 22.75 9V15C22.75 20.43 20.43 22.75 15 22.75ZM9 2.75C4.39 2.75 2.75 4.39 2.75 9V15C2.75 19.61 4.39 21.25 9 21.25H15C19.61 21.25 21.25 19.61 21.25 15V9C21.25 4.39 19.61 2.75 15 2.75H9Z" fill="white"/>
<path d="M15.58 19.252C15.17 19.252 14.83 18.912 14.83 18.502V14.602C14.83 14.192 15.17 13.852 15.58 13.852C15.99 13.852 16.33 14.192 16.33 14.602V18.502C16.33 18.912 15.99 19.252 15.58 19.252V19.252ZM15.58 8.2C15.17 8.2 14.83 7.86 14.83 7.45V5.5C14.83 5.09 15.17 4.75 15.58 4.75C15.99 4.75 16.33 5.09 16.33 5.5V7.45C16.33 7.86 15.99 8.2 15.58 8.2V8.2Z" fill="white"/>
<path d="M15.58 13.4C14.9174 13.4 14.2697 13.2035 13.7188 12.8354C13.1679 12.4673 12.7385 11.9441 12.485 11.332C12.2314 10.7199 12.1651 10.0463 12.2944 9.39645C12.4236 8.74661 12.7427 8.1497 13.2112 7.68119C13.6797 7.21269 14.2766 6.89363 14.9264 6.76437C15.5763 6.63511 16.2498 6.70145 16.862 6.955C17.4741 7.20856 17.9973 7.63794 18.3654 8.18884C18.7335 8.73974 18.93 9.38743 18.93 10.05C18.93 11.9 17.42 13.4 15.58 13.4ZM15.58 8.2C14.56 8.2 13.73 9.03 13.73 10.05C13.73 11.07 14.56 11.9 15.58 11.9C16.6 11.9 17.43 11.07 17.43 10.05C17.43 9.03 16.59 8.2 15.58 8.2ZM8.41998 19.25C8.00998 19.25 7.66998 18.91 7.66998 18.5V16.55C7.66998 16.14 8.00998 15.8 8.41998 15.8C8.82998 15.8 9.16998 16.14 9.16998 16.55V18.5C9.16998 18.91 8.83998 19.25 8.41998 19.25ZM8.41998 10.15C8.00998 10.15 7.66998 9.81 7.66998 9.4V5.5C7.66998 5.09 8.00998 4.75 8.41998 4.75C8.82998 4.75 9.16998 5.09 9.16998 5.5V9.4C9.16998 9.81 8.83998 10.15 8.41998 10.15Z" fill="white"/>
<path d="M8.42001 17.302C7.98008 17.302 7.54446 17.2154 7.13802 17.047C6.73158 16.8786 6.36228 16.6319 6.0512 16.3208C5.74012 16.0097 5.49336 15.6404 5.32501 15.234C5.15666 14.8276 5.07001 14.3919 5.07001 13.952C5.07001 13.5121 5.15666 13.0765 5.32501 12.67C5.49336 12.2636 5.74012 11.8943 6.0512 11.5832C6.36228 11.2721 6.73158 11.0254 7.13802 10.857C7.54446 10.6887 7.98008 10.602 8.42001 10.602C9.30848 10.602 10.1606 10.9549 10.7888 11.5832C11.4171 12.2114 11.77 13.0635 11.77 13.952C11.77 14.8405 11.4171 15.6926 10.7888 16.3208C10.1606 16.9491 9.30848 17.302 8.42001 17.302ZM8.42001 12.102C7.40001 12.102 6.57001 12.932 6.57001 13.952C6.57001 14.972 7.40001 15.802 8.42001 15.802C9.44001 15.802 10.27 14.972 10.27 13.952C10.27 12.932 9.45001 12.102 8.42001 12.102Z" fill="white"/>
</svg>
